<?xml version="1.0" encoding="utf-8"?>
<!-- Generator: Adobe Illustrator 25.3.1, SVG Export Plug-In . SVG Version: 6.00 Build 0)  -->
<svg version="1.1" id="Layer_1" xmlns="http://www.w3.org/2000/svg" xmlns:xlink="http://www.w3.org/1999/xlink" x="0px" y="0px"
	 viewBox="0 0 1200 800" style="enable-background:new 0 0 1200 800;" xml:space="preserve">
<style type="text/css">
	.st0{fill:#FFFFFF;}
	.st1{fill:#FBF8CC;}
	.st2{fill:#A3C4F3;}
	.st3{fill:#98F5E1;}
	.st4{fill:#FDE4CF;}
	.st5{fill:none;stroke:#000000;}
	.st6{font-family:'Helvetica';}
	.st7{font-size:10px;}
	.st8{fill:#7B7B7B;}
	.st9{font-family:'Arial-BoldMT';}
	.st10{font-size:12px;}
	.st11{display:none;fill:#7B7B7B;enable-background:new    ;}
	.st12{fill:#F1C0E8;}
	.st13{fill:#90DBF4;}
	.st14{fill:#CFBAF0;}
	.st15{fill:#B9FBC0;}
	.st16{fill:#FFCFD2;}
	.st17{fill:#8EECF5;}
	.st18{font-family:'ArialMT';}
</style>
<g>
	<rect id="backgorund" class="st0" width="1200" height="800"/>
	<g id="viz">
		<g id="_x32_014" transform="translate(0,0)">
			<g transform="translate(50,20)">
				<g>
					<rect id="_x32_014_-_Animation" x="1" y="111.3" class="st1" width="92.9" height="8.7"/>
					<rect id="_x32_014_-_Comedy" x="94.9" y="101.6" class="st2" width="92.9" height="18.4"/>
					<rect id="_x32_014_-_Drama" x="282.7" y="102.8" class="st3" width="92.9" height="17.2"/>
					<rect id="_x32_014_-_Family_Animation" x="376.6" y="106.4" class="st4" width="92.9" height="13.6"/>
				</g>
				<g id="xAxis" transform="translate(0,120)">
					<path class="st5" d="M0,0h940"/>
					<g transform="translate(47.44952178533474,0)">
						<line class="st5" x1="0" y1="0" x2="0" y2="6"/>
						<text transform="matrix(1 0 0 1 -22.2357 16.0991)" class="st6 st7">Animation</text>
					</g>
					<g transform="translate(141.34962805526035,0)">
						<line class="st5" x1="0" y1="0" x2="0" y2="6"/>
						<text transform="matrix(1 0 0 1 -18.6192 16.0991)" class="st6 st7">Comedy</text>
					</g>
					<g transform="translate(235.24973432518595,0)">
						<line class="st5" x1="0" y1="0" x2="0" y2="6"/>
						<text transform="matrix(1 0 0 1 -27.511 16.0991)" class="st6 st7">Docu-Series</text>
					</g>
					<g transform="translate(329.1498405951116,0)">
						<line class="st5" x1="0" y1="0" x2="0" y2="6"/>
						<text transform="matrix(1 0 0 1 -15.0024 16.0991)" class="st6 st7">Drama</text>
					</g>
					<g transform="translate(423.0499468650372,0)">
						<line class="st5" x1="0" y1="0" x2="0" y2="6"/>
						<text transform="matrix(1 0 0 1 -38.0729 16.0991)" class="st6 st7">Family Animation</text>
					</g>
					<g transform="translate(516.9500531349628,0)">
						<line class="st5" x1="0" y1="0" x2="0" y2="6"/>
						<text transform="matrix(1 0 0 1 -40.2968 16.0991)" class="st6 st7">Family Live Action</text>
					</g>
					<g transform="translate(610.8501594048884,0)">
						<line class="st5" x1="0" y1="0" x2="0" y2="6"/>
						<text transform="matrix(1 0 0 1 -40.5894 16.0991)" class="st6 st7">Foreign Language</text>
					</g>
					<g transform="translate(704.7502656748142,0)">
						<line class="st5" x1="0" y1="0" x2="0" y2="6"/>
						<text transform="matrix(1 0 0 1 -15.0022 16.0991)" class="st6 st7">Marvel</text>
					</g>
					<g transform="translate(798.6503719447397,0)">
						<line class="st5" x1="0" y1="0" x2="0" y2="6"/>
						<text transform="matrix(1 0 0 1 -15.2852 16.0991)" class="st6 st7">Reality</text>
					</g>
					<g transform="translate(892.5504782146653,0)">
						<line class="st5" x1="0" y1="0" x2="0" y2="6"/>
						<text transform="matrix(1 0 0 1 -22.7888 16.0991)" class="st6 st7">Talk Show</text>
					</g>
					<text transform="matrix(1 0 0 1 898.6436 -4.0005)" class="st8 st9 st10">Genere</text>
				</g>
				<g id="yAxis">
					<path class="st5" d="M-6,120h6V0h-6"/>
					<g transform="translate(0,120)">
						<line class="st5" x1="0" y1="0" x2="-6" y2="0"/>
						<text transform="matrix(1 0 0 1 -14.5635 3.1997)" class="st6 st7">0</text>
					</g>
					<g transform="translate(0,109.0909090909091)">
						<line class="st5" x1="0" y1="0" x2="-6" y2="0"/>
						<text transform="matrix(1 0 0 1 -25.687 3.1996)" class="st6 st7">100</text>
					</g>
					<g transform="translate(0,98.18181818181817)">
						<line class="st5" x1="0" y1="0" x2="-6" y2="0"/>
						<text transform="matrix(1 0 0 1 -25.687 3.2)" class="st6 st7">200</text>
					</g>
					<g transform="translate(0,87.27272727272728)">
						<line class="st5" x1="0" y1="0" x2="-6" y2="0"/>
						<text transform="matrix(1 0 0 1 -25.687 3.1985)" class="st6 st7">300</text>
					</g>
					<g transform="translate(0,76.36363636363636)">
						<line class="st5" x1="0" y1="0" x2="-6" y2="0"/>
						<text transform="matrix(1 0 0 1 -25.687 3.1984)" class="st6 st7">400</text>
					</g>
					<g transform="translate(0,65.45454545454545)">
						<line class="st5" x1="0" y1="0" x2="-6" y2="0"/>
						<text transform="matrix(1 0 0 1 -25.687 3.1993)" class="st6 st7">500</text>
					</g>
					<g transform="translate(0,54.54545454545455)">
						<line class="st5" x1="0" y1="0" x2="-6" y2="0"/>
						<text transform="matrix(1 0 0 1 -25.687 3.1992)" class="st6 st7">600</text>
					</g>
					<g transform="translate(0,43.63636363636364)">
						<line class="st5" x1="0" y1="0" x2="-6" y2="0"/>
						<text transform="matrix(1 0 0 1 -25.687 3.1986)" class="st6 st7">700</text>
					</g>
					<g transform="translate(0,32.72727272727273)">
						<line class="st5" x1="0" y1="0" x2="-6" y2="0"/>
						<text transform="matrix(1 0 0 1 -25.687 3.1985)" class="st6 st7">800</text>
					</g>
					<g transform="translate(0,21.818181818181813)">
						<line class="st5" x1="0" y1="0" x2="-6" y2="0"/>
						<text transform="matrix(1 0 0 1 -25.687 3.1994)" class="st6 st7">900</text>
					</g>
					<g transform="translate(0,10.909090909090914)">
						<line class="st5" x1="0" y1="0" x2="-6" y2="0"/>
						<text transform="matrix(1 0 0 1 -34.0254 3.1993)" class="st6 st7">1,000</text>
					</g>
					<g transform="translate(0,0)">
						<line class="st5" x1="0" y1="0" x2="-6" y2="0"/>
						<text transform="matrix(1 0 0 1 -34.0254 3.1992)" class="st6 st7">1,100</text>
					</g>
					<text transform="matrix(1 0 0 1 3.998 10.2939)" class="st8 st9 st10">IMDB_Rating [sum]</text>
				</g>
			</g>
			<text transform="matrix(1 0 0 1 3.9995 14.2944)" class="st9 st10">2014</text>
		</g>
		<g id="_x32_013" transform="translate(0,160)">
			<g transform="translate(50,20)">
				<g>
					<rect id="_x32_013_-_Comedy" x="94.9" y="103.7" class="st2" width="92.9" height="16.3"/>
					<rect id="_x32_013_-_Drama" x="282.7" y="93.3" class="st3" width="92.9" height="26.7"/>
					<rect id="_x32_013_-_Family_Animation" x="376.6" y="103.4" class="st4" width="92.9" height="16.6"/>
				</g>
				<g id="xAxis_1_" transform="translate(0,120)">
					<path class="st5" d="M0,0h940"/>
					<g transform="translate(47.44952178533474,0)">
						<line class="st5" x1="0" y1="0" x2="0" y2="6"/>
						<text transform="matrix(1 0 0 1 -22.2357 16.0996)" class="st6 st7">Animation</text>
					</g>
					<g transform="translate(141.34962805526035,0)">
						<line class="st5" x1="0" y1="0" x2="0" y2="6"/>
						<text transform="matrix(1 0 0 1 -18.6192 16.0996)" class="st6 st7">Comedy</text>
					</g>
					<g transform="translate(235.24973432518595,0)">
						<line class="st5" x1="0" y1="0" x2="0" y2="6"/>
						<text transform="matrix(1 0 0 1 -27.511 16.0996)" class="st6 st7">Docu-Series</text>
					</g>
					<g transform="translate(329.1498405951116,0)">
						<line class="st5" x1="0" y1="0" x2="0" y2="6"/>
						<text transform="matrix(1 0 0 1 -15.0024 16.0996)" class="st6 st7">Drama</text>
					</g>
					<g transform="translate(423.0499468650372,0)">
						<line class="st5" x1="0" y1="0" x2="0" y2="6"/>
						<text transform="matrix(1 0 0 1 -38.0729 16.0996)" class="st6 st7">Family Animation</text>
					</g>
					<g transform="translate(516.9500531349628,0)">
						<line class="st5" x1="0" y1="0" x2="0" y2="6"/>
						<text transform="matrix(1 0 0 1 -40.2968 16.0996)" class="st6 st7">Family Live Action</text>
					</g>
					<g transform="translate(610.8501594048884,0)">
						<line class="st5" x1="0" y1="0" x2="0" y2="6"/>
						<text transform="matrix(1 0 0 1 -40.5894 16.0996)" class="st6 st7">Foreign Language</text>
					</g>
					<g transform="translate(704.7502656748142,0)">
						<line class="st5" x1="0" y1="0" x2="0" y2="6"/>
						<text transform="matrix(1 0 0 1 -15.0022 16.0996)" class="st6 st7">Marvel</text>
					</g>
					<g transform="translate(798.6503719447397,0)">
						<line class="st5" x1="0" y1="0" x2="0" y2="6"/>
						<text transform="matrix(1 0 0 1 -15.2852 16.0996)" class="st6 st7">Reality</text>
					</g>
					<g transform="translate(892.5504782146653,0)">
						<line class="st5" x1="0" y1="0" x2="0" y2="6"/>
						<text transform="matrix(1 0 0 1 -22.7888 16.0996)" class="st6 st7">Talk Show</text>
					</g>
					<text transform="matrix(1 0 0 1 898.6436 -4)" class="st11 st9 st10">Genere</text>
				</g>
				<g id="yAxis_1_">
					<path class="st5" d="M-6,120h6V0h-6"/>
					<g transform="translate(0,120)">
						<line class="st5" x1="0" y1="0" x2="-6" y2="0"/>
						<text transform="matrix(1 0 0 1 -14.5635 3.1992)" class="st6 st7">0</text>
					</g>
					<g transform="translate(0,109.0909090909091)">
						<line class="st5" x1="0" y1="0" x2="-6" y2="0"/>
						<text transform="matrix(1 0 0 1 -25.687 3.1982)" class="st6 st7">100</text>
					</g>
					<g transform="translate(0,98.18181818181817)">
						<line class="st5" x1="0" y1="0" x2="-6" y2="0"/>
						<text transform="matrix(1 0 0 1 -25.687 3.1981)" class="st6 st7">200</text>
					</g>
					<g transform="translate(0,87.27272727272728)">
						<line class="st5" x1="0" y1="0" x2="-6" y2="0"/>
						<text transform="matrix(1 0 0 1 -25.687 3.199)" class="st6 st7">300</text>
					</g>
					<g transform="translate(0,76.36363636363636)">
						<line class="st5" x1="0" y1="0" x2="-6" y2="0"/>
						<text transform="matrix(1 0 0 1 -25.687 3.1989)" class="st6 st7">400</text>
					</g>
					<g transform="translate(0,65.45454545454545)">
						<line class="st5" x1="0" y1="0" x2="-6" y2="0"/>
						<text transform="matrix(1 0 0 1 -25.687 3.1988)" class="st6 st7">500</text>
					</g>
					<g transform="translate(0,54.54545454545455)">
						<line class="st5" x1="0" y1="0" x2="-6" y2="0"/>
						<text transform="matrix(1 0 0 1 -25.687 3.1987)" class="st6 st7">600</text>
					</g>
					<g transform="translate(0,43.63636363636364)">
						<line class="st5" x1="0" y1="0" x2="-6" y2="0"/>
						<text transform="matrix(1 0 0 1 -25.687 3.1996)" class="st6 st7">700</text>
					</g>
					<g transform="translate(0,32.72727272727273)">
						<line class="st5" x1="0" y1="0" x2="-6" y2="0"/>
						<text transform="matrix(1 0 0 1 -25.687 3.199)" class="st6 st7">800</text>
					</g>
					<g transform="translate(0,21.818181818181813)">
						<line class="st5" x1="0" y1="0" x2="-6" y2="0"/>
						<text transform="matrix(1 0 0 1 -25.687 3.1989)" class="st6 st7">900</text>
					</g>
					<g transform="translate(0,10.909090909090914)">
						<line class="st5" x1="0" y1="0" x2="-6" y2="0"/>
						<text transform="matrix(1 0 0 1 -34.0254 3.1988)" class="st6 st7">1,000</text>
					</g>
					<g transform="translate(0,0)">
						<line class="st5" x1="0" y1="0" x2="-6" y2="0"/>
						<text transform="matrix(1 0 0 1 -34.0254 3.1997)" class="st6 st7">1,100</text>
					</g>
					<text transform="matrix(1 0 0 1 3.998 10.2944)" class="st11 st9 st10">IMDB_Rating [sum]</text>
				</g>
			</g>
			<text transform="matrix(1 0 0 1 3.9995 14.2935)" class="st9 st10">2013</text>
		</g>
		<g id="_x32_015" transform="translate(0,320)">
			<g transform="translate(50,20)">
				<g>
					<rect id="_x32_015_-_Comedy" x="94.9" y="68.3" class="st2" width="92.9" height="51.7"/>
					<rect id="_x32_015_-_Docu-Series" x="188.8" y="100.9" class="st12" width="92.9" height="19.1"/>
					<rect id="_x32_015_-_Drama" x="282.7" y="83.1" class="st3" width="92.9" height="36.9"/>
					<rect id="_x32_015_-_Family_Animation" x="376.6" y="66.3" class="st4" width="92.9" height="53.7"/>
					<rect id="_x32_015_-_Family_Live_Action" x="470.5" y="115.5" class="st13" width="92.9" height="4.5"/>
					<rect id="_x32_015_-_Foreign_Language" x="564.4" y="111.2" class="st14" width="92.9" height="8.8"/>
					<rect id="_x32_015_-_Marvel" x="658.3" y="101.6" class="st15" width="92.9" height="18.4"/>
				</g>
				<g id="xAxis_2_" transform="translate(0,120)">
					<path class="st5" d="M0,0h940"/>
					<g transform="translate(47.44952178533474,0)">
						<line class="st5" x1="0" y1="0" x2="0" y2="6"/>
						<text transform="matrix(1 0 0 1 -22.2357 16.0977)" class="st6 st7">Animation</text>
					</g>
					<g transform="translate(141.34962805526035,0)">
						<line class="st5" x1="0" y1="0" x2="0" y2="6"/>
						<text transform="matrix(1 0 0 1 -18.6192 16.0977)" class="st6 st7">Comedy</text>
					</g>
					<g transform="translate(235.24973432518595,0)">
						<line class="st5" x1="0" y1="0" x2="0" y2="6"/>
						<text transform="matrix(1 0 0 1 -27.511 16.0977)" class="st6 st7">Docu-Series</text>
					</g>
					<g transform="translate(329.1498405951116,0)">
						<line class="st5" x1="0" y1="0" x2="0" y2="6"/>
						<text transform="matrix(1 0 0 1 -15.0024 16.0977)" class="st6 st7">Drama</text>
					</g>
					<g transform="translate(423.0499468650372,0)">
						<line class="st5" x1="0" y1="0" x2="0" y2="6"/>
						<text transform="matrix(1 0 0 1 -38.0729 16.0977)" class="st6 st7">Family Animation</text>
					</g>
					<g transform="translate(516.9500531349628,0)">
						<line class="st5" x1="0" y1="0" x2="0" y2="6"/>
						<text transform="matrix(1 0 0 1 -40.2968 16.0977)" class="st6 st7">Family Live Action</text>
					</g>
					<g transform="translate(610.8501594048884,0)">
						<line class="st5" x1="0" y1="0" x2="0" y2="6"/>
						<text transform="matrix(1 0 0 1 -40.5894 16.0977)" class="st6 st7">Foreign Language</text>
					</g>
					<g transform="translate(704.7502656748142,0)">
						<line class="st5" x1="0" y1="0" x2="0" y2="6"/>
						<text transform="matrix(1 0 0 1 -15.0022 16.0977)" class="st6 st7">Marvel</text>
					</g>
					<g transform="translate(798.6503719447397,0)">
						<line class="st5" x1="0" y1="0" x2="0" y2="6"/>
						<text transform="matrix(1 0 0 1 -15.2852 16.0977)" class="st6 st7">Reality</text>
					</g>
					<g transform="translate(892.5504782146653,0)">
						<line class="st5" x1="0" y1="0" x2="0" y2="6"/>
						<text transform="matrix(1 0 0 1 -22.7888 16.0977)" class="st6 st7">Talk Show</text>
					</g>
					<text transform="matrix(1 0 0 1 898.6436 -4.001)" class="st11 st9 st10">Genere</text>
				</g>
				<g id="yAxis_2_">
					<path class="st5" d="M-6,120h6V0h-6"/>
					<g transform="translate(0,120)">
						<line class="st5" x1="0" y1="0" x2="-6" y2="0"/>
						<text transform="matrix(1 0 0 1 -14.5635 3.2002)" class="st6 st7">0</text>
					</g>
					<g transform="translate(0,109.0909090909091)">
						<line class="st5" x1="0" y1="0" x2="-6" y2="0"/>
						<text transform="matrix(1 0 0 1 -25.687 3.1982)" class="st6 st7">100</text>
					</g>
					<g transform="translate(0,98.18181818181817)">
						<line class="st5" x1="0" y1="0" x2="-6" y2="0"/>
						<text transform="matrix(1 0 0 1 -25.687 3.199)" class="st6 st7">200</text>
					</g>
					<g transform="translate(0,87.27272727272728)">
						<line class="st5" x1="0" y1="0" x2="-6" y2="0"/>
						<text transform="matrix(1 0 0 1 -25.687 3.198)" class="st6 st7">300</text>
					</g>
					<g transform="translate(0,76.36363636363636)">
						<line class="st5" x1="0" y1="0" x2="-6" y2="0"/>
						<text transform="matrix(1 0 0 1 -25.687 3.1989)" class="st6 st7">400</text>
					</g>
					<g transform="translate(0,65.45454545454545)">
						<line class="st5" x1="0" y1="0" x2="-6" y2="0"/>
						<text transform="matrix(1 0 0 1 -25.687 3.1998)" class="st6 st7">500</text>
					</g>
					<g transform="translate(0,54.54545454545455)">
						<line class="st5" x1="0" y1="0" x2="-6" y2="0"/>
						<text transform="matrix(1 0 0 1 -25.687 3.1987)" class="st6 st7">600</text>
					</g>
					<g transform="translate(0,43.63636363636364)">
						<line class="st5" x1="0" y1="0" x2="-6" y2="0"/>
						<text transform="matrix(1 0 0 1 -25.687 3.1996)" class="st6 st7">700</text>
					</g>
					<g transform="translate(0,32.72727272727273)">
						<line class="st5" x1="0" y1="0" x2="-6" y2="0"/>
						<text transform="matrix(1 0 0 1 -25.687 3.1985)" class="st6 st7">800</text>
					</g>
					<g transform="translate(0,21.818181818181813)">
						<line class="st5" x1="0" y1="0" x2="-6" y2="0"/>
						<text transform="matrix(1 0 0 1 -25.687 3.1984)" class="st6 st7">900</text>
					</g>
					<g transform="translate(0,10.909090909090914)">
						<line class="st5" x1="0" y1="0" x2="-6" y2="0"/>
						<text transform="matrix(1 0 0 1 -34.0254 3.1983)" class="st6 st7">1,000</text>
					</g>
					<g transform="translate(0,0)">
						<line class="st5" x1="0" y1="0" x2="-6" y2="0"/>
						<text transform="matrix(1 0 0 1 -34.0254 3.1992)" class="st6 st7">1,100</text>
					</g>
					<text transform="matrix(1 0 0 1 3.998 10.2939)" class="st11 st9 st10">IMDB_Rating [sum]</text>
				</g>
			</g>
			<text transform="matrix(1 0 0 1 3.9995 14.293)" class="st9 st10">2015</text>
		</g>
		<g id="_x32_016" transform="translate(0,480)">
			<g transform="translate(50,20)">
				<g>
					<rect id="_x32_016_-_Comedy" x="94.9" y="42.7" class="st2" width="92.9" height="77.3"/>
					<rect id="_x32_016_-_Docu-Series" x="188.8" y="63.7" class="st12" width="92.9" height="56.3"/>
					<rect id="_x32_016_-_Drama" x="282.7" y="64.4" class="st3" width="92.9" height="55.6"/>
					<rect id="_x32_016_-_Family_Animation" x="376.6" y="2.8" class="st4" width="92.9" height="117.2"/>
					<rect id="_x32_016_-_Foreign_Language" x="564.4" y="86.2" class="st14" width="92.9" height="33.8"/>
					<rect id="_x32_016_-_Marvel" x="658.3" y="111.6" class="st15" width="92.9" height="8.4"/>
					<rect id="_x32_016_-_Reality" x="752.2" y="115.6" class="st16" width="92.9" height="4.4"/>
					<rect id="_x32_016_-_Talk_Show" x="846.1" y="112.7" class="st17" width="92.9" height="7.3"/>
				</g>
				<g id="xAxis_3_" transform="translate(0,120)">
					<path class="st5" d="M0,0h940"/>
					<g transform="translate(47.44952178533474,0)">
						<line class="st5" x1="0" y1="0" x2="0" y2="6"/>
						<text transform="matrix(1 0 0 1 -22.2357 16.0977)" class="st6 st7">Animation</text>
					</g>
					<g transform="translate(141.34962805526035,0)">
						<line class="st5" x1="0" y1="0" x2="0" y2="6"/>
						<text transform="matrix(1 0 0 1 -18.6192 16.0977)" class="st6 st7">Comedy</text>
					</g>
					<g transform="translate(235.24973432518595,0)">
						<line class="st5" x1="0" y1="0" x2="0" y2="6"/>
						<text transform="matrix(1 0 0 1 -27.511 16.0977)" class="st6 st7">Docu-Series</text>
					</g>
					<g transform="translate(329.1498405951116,0)">
						<line class="st5" x1="0" y1="0" x2="0" y2="6"/>
						<text transform="matrix(1 0 0 1 -15.0024 16.0977)" class="st6 st7">Drama</text>
					</g>
					<g transform="translate(423.0499468650372,0)">
						<line class="st5" x1="0" y1="0" x2="0" y2="6"/>
						<text transform="matrix(1 0 0 1 -38.0729 16.0977)" class="st6 st7">Family Animation</text>
					</g>
					<g transform="translate(516.9500531349628,0)">
						<line class="st5" x1="0" y1="0" x2="0" y2="6"/>
						<text transform="matrix(1 0 0 1 -40.2968 16.0977)" class="st6 st7">Family Live Action</text>
					</g>
					<g transform="translate(610.8501594048884,0)">
						<line class="st5" x1="0" y1="0" x2="0" y2="6"/>
						<text transform="matrix(1 0 0 1 -40.5894 16.0977)" class="st6 st7">Foreign Language</text>
					</g>
					<g transform="translate(704.7502656748142,0)">
						<line class="st5" x1="0" y1="0" x2="0" y2="6"/>
						<text transform="matrix(1 0 0 1 -15.0022 16.0977)" class="st6 st7">Marvel</text>
					</g>
					<g transform="translate(798.6503719447397,0)">
						<line class="st5" x1="0" y1="0" x2="0" y2="6"/>
						<text transform="matrix(1 0 0 1 -15.2852 16.0977)" class="st6 st7">Reality</text>
					</g>
					<g transform="translate(892.5504782146653,0)">
						<line class="st5" x1="0" y1="0" x2="0" y2="6"/>
						<text transform="matrix(1 0 0 1 -22.7888 16.0977)" class="st6 st7">Talk Show</text>
					</g>
					<text transform="matrix(1 0 0 1 898.6436 -4.001)" class="st11 st9 st10">Genere</text>
				</g>
				<g id="yAxis_3_">
					<path class="st5" d="M-6,120h6V0h-6"/>
					<g transform="translate(0,120)">
						<line class="st5" x1="0" y1="0" x2="-6" y2="0"/>
						<text transform="matrix(1 0 0 1 -14.5635 3.1982)" class="st6 st7">0</text>
					</g>
					<g transform="translate(0,109.0909090909091)">
						<line class="st5" x1="0" y1="0" x2="-6" y2="0"/>
						<text transform="matrix(1 0 0 1 -25.687 3.1962)" class="st6 st7">100</text>
					</g>
					<g transform="translate(0,98.18181818181817)">
						<line class="st5" x1="0" y1="0" x2="-6" y2="0"/>
						<text transform="matrix(1 0 0 1 -25.687 3.1981)" class="st6 st7">200</text>
					</g>
					<g transform="translate(0,87.27272727272728)">
						<line class="st5" x1="0" y1="0" x2="-6" y2="0"/>
						<text transform="matrix(1 0 0 1 -25.687 3.198)" class="st6 st7">300</text>
					</g>
					<g transform="translate(0,76.36363636363636)">
						<line class="st5" x1="0" y1="0" x2="-6" y2="0"/>
						<text transform="matrix(1 0 0 1 -25.687 3.1969)" class="st6 st7">400</text>
					</g>
					<g transform="translate(0,65.45454545454545)">
						<line class="st5" x1="0" y1="0" x2="-6" y2="0"/>
						<text transform="matrix(1 0 0 1 -25.687 3.1978)" class="st6 st7">500</text>
					</g>
					<g transform="translate(0,54.54545454545455)">
						<line class="st5" x1="0" y1="0" x2="-6" y2="0"/>
						<text transform="matrix(1 0 0 1 -25.687 3.1958)" class="st6 st7">600</text>
					</g>
					<g transform="translate(0,43.63636363636364)">
						<line class="st5" x1="0" y1="0" x2="-6" y2="0"/>
						<text transform="matrix(1 0 0 1 -25.687 3.1976)" class="st6 st7">700</text>
					</g>
					<g transform="translate(0,32.72727272727273)">
						<line class="st5" x1="0" y1="0" x2="-6" y2="0"/>
						<text transform="matrix(1 0 0 1 -25.687 3.1975)" class="st6 st7">800</text>
					</g>
					<g transform="translate(0,21.818181818181813)">
						<line class="st5" x1="0" y1="0" x2="-6" y2="0"/>
						<text transform="matrix(1 0 0 1 -25.687 3.1974)" class="st6 st7">900</text>
					</g>
					<g transform="translate(0,10.909090909090914)">
						<line class="st5" x1="0" y1="0" x2="-6" y2="0"/>
						<text transform="matrix(1 0 0 1 -34.0254 3.1974)" class="st6 st7">1,000</text>
					</g>
					<g transform="translate(0,0)">
						<line class="st5" x1="0" y1="0" x2="-6" y2="0"/>
						<text transform="matrix(1 0 0 1 -34.0254 3.1963)" class="st6 st7">1,100</text>
					</g>
					<text transform="matrix(1 0 0 1 3.998 10.293)" class="st11 st9 st10">IMDB_Rating [sum]</text>
				</g>
			</g>
			<text transform="matrix(1 0 0 1 3.9995 14.292)" class="st9 st10">2016</text>
		</g>
		<g id="_x32_017" transform="translate(0,640)">
			<g transform="translate(50,20)">
				<g>
					<rect id="_x32_017_-_Comedy" x="94.9" y="78.5" class="st2" width="92.9" height="41.5"/>
					<rect id="_x32_017_-_Docu-Series" x="188.8" y="84.5" class="st12" width="92.9" height="35.5"/>
					<rect id="_x32_017_-_Drama" x="282.7" y="92.8" class="st3" width="92.9" height="27.2"/>
					<rect id="_x32_017_-_Family_Animation" x="376.6" y="75.5" class="st4" width="92.9" height="44.5"/>
					<rect id="_x32_017_-_Family_Live_Action" x="470.5" y="110.3" class="st13" width="92.9" height="9.7"/>
					<rect id="_x32_017_-_Foreign_Language" x="564.4" y="94" class="st14" width="92.9" height="26"/>
					<rect id="_x32_017_-_Marvel" x="658.3" y="112.1" class="st15" width="92.9" height="7.9"/>
					<rect id="_x32_017_-_Reality" x="752.2" y="112" class="st16" width="92.9" height="8"/>
					<rect id="_x32_017_-_Talk_Show" x="846.1" y="116.4" class="st17" width="92.9" height="3.6"/>
				</g>
				<g id="xAxis_4_" transform="translate(0,120)">
					<path class="st5" d="M0,0h940"/>
					<g transform="translate(47.44952178533474,0)">
						<line class="st5" x1="0" y1="0" x2="0" y2="6"/>
						<text transform="matrix(1 0 0 1 -22.2357 16.0986)" class="st6 st7">Animation</text>
					</g>
					<g transform="translate(141.34962805526035,0)">
						<line class="st5" x1="0" y1="0" x2="0" y2="6"/>
						<text transform="matrix(1 0 0 1 -18.6192 16.0986)" class="st6 st7">Comedy</text>
					</g>
					<g transform="translate(235.24973432518595,0)">
						<line class="st5" x1="0" y1="0" x2="0" y2="6"/>
						<text transform="matrix(1 0 0 1 -27.511 16.0986)" class="st6 st7">Docu-Series</text>
					</g>
					<g transform="translate(329.1498405951116,0)">
						<line class="st5" x1="0" y1="0" x2="0" y2="6"/>
						<text transform="matrix(1 0 0 1 -15.0024 16.0986)" class="st6 st7">Drama</text>
					</g>
					<g transform="translate(423.0499468650372,0)">
						<line class="st5" x1="0" y1="0" x2="0" y2="6"/>
						<text transform="matrix(1 0 0 1 -38.0729 16.0986)" class="st6 st7">Family Animation</text>
					</g>
					<g transform="translate(516.9500531349628,0)">
						<line class="st5" x1="0" y1="0" x2="0" y2="6"/>
						<text transform="matrix(1 0 0 1 -40.2968 16.0986)" class="st6 st7">Family Live Action</text>
					</g>
					<g transform="translate(610.8501594048884,0)">
						<line class="st5" x1="0" y1="0" x2="0" y2="6"/>
						<text transform="matrix(1 0 0 1 -40.5894 16.0986)" class="st6 st7">Foreign Language</text>
					</g>
					<g transform="translate(704.7502656748142,0)">
						<line class="st5" x1="0" y1="0" x2="0" y2="6"/>
						<text transform="matrix(1 0 0 1 -15.0022 16.0986)" class="st6 st7">Marvel</text>
					</g>
					<g transform="translate(798.6503719447397,0)">
						<line class="st5" x1="0" y1="0" x2="0" y2="6"/>
						<text transform="matrix(1 0 0 1 -15.2852 16.0986)" class="st6 st7">Reality</text>
					</g>
					<g transform="translate(892.5504782146653,0)">
						<line class="st5" x1="0" y1="0" x2="0" y2="6"/>
						<text transform="matrix(1 0 0 1 -22.7888 16.0986)" class="st6 st7">Talk Show</text>
					</g>
					<text transform="matrix(1 0 0 1 898.6436 -4.002)" class="st11 st9 st10">Genere</text>
				</g>
				<g id="yAxis_4_">
					<path class="st5" d="M-6,120h6V0h-6"/>
					<g transform="translate(0,120)">
						<line class="st5" x1="0" y1="0" x2="-6" y2="0"/>
						<text transform="matrix(1 0 0 1 -14.5635 3.1982)" class="st6 st7">0</text>
					</g>
					<g transform="translate(0,109.0909090909091)">
						<line class="st5" x1="0" y1="0" x2="-6" y2="0"/>
						<text transform="matrix(1 0 0 1 -25.687 3.1991)" class="st6 st7">100</text>
					</g>
					<g transform="translate(0,98.18181818181817)">
						<line class="st5" x1="0" y1="0" x2="-6" y2="0"/>
						<text transform="matrix(1 0 0 1 -25.687 3.1971)" class="st6 st7">200</text>
					</g>
					<g transform="translate(0,87.27272727272728)">
						<line class="st5" x1="0" y1="0" x2="-6" y2="0"/>
						<text transform="matrix(1 0 0 1 -25.687 3.199)" class="st6 st7">300</text>
					</g>
					<g transform="translate(0,76.36363636363636)">
						<line class="st5" x1="0" y1="0" x2="-6" y2="0"/>
						<text transform="matrix(1 0 0 1 -25.687 3.1969)" class="st6 st7">400</text>
					</g>
					<g transform="translate(0,65.45454545454545)">
						<line class="st5" x1="0" y1="0" x2="-6" y2="0"/>
						<text transform="matrix(1 0 0 1 -25.687 3.1988)" class="st6 st7">500</text>
					</g>
					<g transform="translate(0,54.54545454545455)">
						<line class="st5" x1="0" y1="0" x2="-6" y2="0"/>
						<text transform="matrix(1 0 0 1 -25.687 3.1987)" class="st6 st7">600</text>
					</g>
					<g transform="translate(0,43.63636363636364)">
						<line class="st5" x1="0" y1="0" x2="-6" y2="0"/>
						<text transform="matrix(1 0 0 1 -25.687 3.1976)" class="st6 st7">700</text>
					</g>
					<g transform="translate(0,32.72727272727273)">
						<line class="st5" x1="0" y1="0" x2="-6" y2="0"/>
						<text transform="matrix(1 0 0 1 -25.687 3.1985)" class="st6 st7">800</text>
					</g>
					<g transform="translate(0,21.818181818181813)">
						<line class="st5" x1="0" y1="0" x2="-6" y2="0"/>
						<text transform="matrix(1 0 0 1 -25.687 3.1974)" class="st6 st7">900</text>
					</g>
					<g transform="translate(0,10.909090909090914)">
						<line class="st5" x1="0" y1="0" x2="-6" y2="0"/>
						<text transform="matrix(1 0 0 1 -34.0254 3.1983)" class="st6 st7">1,000</text>
					</g>
					<g transform="translate(0,0)">
						<line class="st5" x1="0" y1="0" x2="-6" y2="0"/>
						<text transform="matrix(1 0 0 1 -34.0254 3.1973)" class="st6 st7">1,100</text>
					</g>
					<text transform="matrix(1 0 0 1 3.998 10.293)" class="st11 st9 st10">IMDB_Rating [sum]</text>
				</g>
			</g>
			<text transform="matrix(1 0 0 1 3.9995 14.292)" class="st9 st10">2017</text>
		</g>
	</g>
	<g id="legend" transform="translate(1000,20)">
		<g transform="translate(5,0)">
			<g transform="translate(0,0)">
				<g transform="translate(0,15.5)">
					<g transform="translate(0, 0)">
						<rect x="0" y="0" class="st1" width="15" height="15"/>
						<text transform="matrix(1 0 0 1 19.998 12.4995)" class="st18 st7">Animation</text>
					</g>
					<g transform="translate(0, 20.5)">
						<rect x="0" y="0" class="st2" width="15" height="15"/>
						<text transform="matrix(1 0 0 1 19.998 12.4995)" class="st18 st7">Comedy</text>
					</g>
					<g transform="translate(0, 41)">
						<rect x="0" y="0" class="st12" width="15" height="15"/>
						<text transform="matrix(1 0 0 1 19.998 12.5)" class="st18 st7">Docu-Series</text>
					</g>
					<g transform="translate(0, 61.5)">
						<rect x="0" y="0" class="st3" width="15" height="15"/>
						<text transform="matrix(1 0 0 1 19.998 12.499)" class="st18 st7">Drama</text>
					</g>
					<g transform="translate(0, 82)">
						<rect x="0" y="0" class="st4" width="15" height="15"/>
						<text transform="matrix(1 0 0 1 19.998 12.4985)" class="st18 st7">Family Animation</text>
					</g>
					<g transform="translate(0, 102.5)">
						<rect x="0" class="st13" width="15" height="15"/>
						<text transform="matrix(1 0 0 1 19.998 12.4995)" class="st18 st7">Family Live Action</text>
					</g>
					<g transform="translate(0, 123)">
						<rect x="0" class="st14" width="15" height="15"/>
						<text transform="matrix(1 0 0 1 19.998 12.4995)" class="st18 st7">Foreign Language</text>
					</g>
					<g transform="translate(0, 143.5)">
						<rect x="0" y="0" class="st15" width="15" height="15"/>
						<text transform="matrix(1 0 0 1 19.998 12.5)" class="st18 st7">Marvel</text>
					</g>
					<g transform="translate(0, 164)">
						<rect x="0" y="0" class="st16" width="15" height="15"/>
						<text transform="matrix(1 0 0 1 19.998 12.499)" class="st18 st7">Reality</text>
					</g>
					<g transform="translate(0, 184.5)">
						<rect x="0" y="0" class="st17" width="15" height="15"/>
						<text transform="matrix(1 0 0 1 19.998 12.499)" class="st18 st7">Talk Show</text>
					</g>
				</g>
				<text transform="matrix(1 0 0 1 -1.953125e-03 -2.441406e-03)" class="st9 st10">Genere</text>
			</g>
		</g>
	</g>
</g>
</svg>
