<?xml version="1.0" encoding="utf-8"?>
<!-- Generator: Adobe Illustrator 25.3.1, SVG Export Plug-In . SVG Version: 6.00 Build 0)  -->
<svg version="1.1" id="Layer_1" xmlns="http://www.w3.org/2000/svg" xmlns:xlink="http://www.w3.org/1999/xlink" x="0px" y="0px"
	 viewBox="0 0 50 50" style="enable-background:new 0 0 50 50;" xml:space="preserve">
<style type="text/css">
	.st0{fill:#CFBAF0;}
</style>
<path class="st0" d="M4.8,19c0.7,0,1.4,0,2.1,0c0,4.2,0,8.4,0,12.6c-0.7,0.1-1.5,0.2-2.3,0.3c-0.9-2.6-1.5-4.2-2.5-7
	c0,2.8,0,4.5,0,7.3c-0.7,0.1-1.4,0.2-2.1,0.3c0-4.5,0-8.9,0-13.4c0.8,0,1.2,0,2,0c0.9,2.9,1.8,4.8,2.7,7.6C4.7,23.7,4.7,21.9,4.8,19
	z M14.7,21.1c0-0.6,0-1.5,0-2.1c-2,0-3.9,0-5.8,0c0,4.1,0,8.3,0,12.4c1.9-0.2,3.9-0.3,5.9-0.4c0-0.6,0-1.5,0-2.1
	c-1.3,0.1-2.5,0.2-3.8,0.2c0-1.1,0-2,0-3.1c0.9,0,1.9,0,2.8,0c0-0.6,0-1.5,0-2.1c-0.9,0-1.9,0-2.8,0c0-1.1,0-1.7,0-2.8
	C11.6,21.1,14.2,21.1,14.7,21.1z M16.1,21.1c0.1,0,2.1,0,2.2,0c0,3.3,0,6.4,0,9.7c0.7,0,1.4,0,2.1-0.1c0-3.3,0-6.3,0-9.6
	c0.7,0,1.5,0,2.2,0c0-0.6,0-1.5,0-2.1c-2.1,0-4.4,0-6.5,0C16.1,19.6,16.1,20.5,16.1,21.1z M29.8,19c-2,0-3.9,0-5.9,0
	c0,3.9,0,7.8,0,11.7c0.2,0,0.5,0,0.7,0c0.5,0,0.9,0,1.4,0c0-1.6,0-3.2,0-4.8c0.1,0,2.6,0,2.9,0c0-0.6,0-1.5,0-2.1
	c-0.3,0-2.7,0-2.8,0c0-1.1,0-1.7,0-2.7c0.2,0,3.2,0,3.8,0C29.8,20.5,29.8,19.6,29.8,19z M33.3,28.8c0-3.4,0-6.4,0-9.8
	c-0.7,0-1.4,0-2.1,0c0,3.9,0,7.8,0,11.8c1.9,0.1,3.8,0.1,5.7,0.3c0-0.6,0-1.5,0-2.1C35.7,28.9,34.4,28.8,33.3,28.8z M38.6,31.2
	c0.7,0.1,1.4,0.1,2.1,0.2c0-4.1,0-8.2,0-12.3c-0.7,0-1.4,0-2.1,0C38.6,23.1,38.6,27.1,38.6,31.2z M47.2,25.3
	c0.9-2.1,1.8-4.1,2.7-6.3c-0.8,0-1.5,0-2.3,0c-0.6,1.4-1,2.2-1.5,3.5c-0.5-1.3-0.8-2.2-1.4-3.5c-0.8,0-1.5,0-2.3,0
	c0.8,2.1,1.6,4.1,2.5,6.3c-0.9,2.1-1.8,4.2-2.7,6.2c0.7,0.1,1.5,0.2,2.2,0.3c0.5-1.3,1-2.3,1.5-3.6c0.5,1.4,1,2.5,1.5,4
	c0.7,0.1,1.7,0.2,2.4,0.3C49.1,30,48.1,27.6,47.2,25.3z"/>
</svg>
